<svg xmlns="http://www.w3.org/2000/svg" width="64" height="64" viewBox="0 0 24 24" aria-hidden="true">
  <path fill="#1877f2" d="M24 12a12 12 0 1 0-13.88 11.85v-8.38H7.08V12h3.04V9.39c0-3 1.79-4.66 4.53-4.66 1.31 0 2.68.23 2.68.23v2.95h-1.51c-1.49 0-1.95.92-1.95 1.87V12h3.32l-.53 3.47h-2.79v8.38A12 12 0 0 0 24 12"/>
  <path fill="#fff" d="m16.66 15.47.53-3.47h-3.32V9.78c0-.95.46-1.87 1.95-1.87h1.51V4.96s-1.37-.23-2.68-.23c-2.74 0-4.53 1.66-4.53 4.66V12H7.08v3.47h3.04v8.38a12.1 12.1 0 0 0 3.75 0v-8.38z"/>
</svg>
